<?xml version="1.0" encoding="UTF-8"?>
<svg id="Layer_1" data-name="Layer 1" xmlns="http://www.w3.org/2000/svg" viewBox="0 0 119.59 74.69">
  <defs>
    <style>
      .cls-1 {
        fill: #a4b28b;
      }

      .cls-2 {
        fill: #588157;
      }
    </style>
  </defs>
  <g>
    <path class="cls-1" d="M12.48,74.46v-11.87h-.04l-4.99,11.87h-1.13L1.37,62.6h-.04v11.87H0v-13.32H2.05l4.84,11.34,4.86-11.34h2.05v13.32h-1.33Z"/>
    <path class="cls-1" d="M17.28,74.46v-13.32h1.33v12.12h5.51v1.21h-6.84Z"/>
    <path class="cls-1" d="M37.23,64.52c0-1.37-1.12-2.41-2.36-2.41-1.37,0-2.41,1.03-2.41,2.32,0,1.13,.68,1.84,2.58,2.32,2.88,.74,3.85,2.23,3.85,4.03,0,2.18-1.78,3.91-4.02,3.91-2.36,0-4.07-1.58-4.11-3.96h1.33c.09,1.71,1.17,2.75,2.77,2.75,1.51,0,2.68-1.19,2.68-2.65s-.95-2.25-2.7-2.75c-1.91-.54-3.73-1.17-3.73-3.6,0-2.11,1.69-3.58,3.75-3.58s3.69,1.57,3.69,3.62h-1.33Z"/>
    <path class="cls-1" d="M43.13,74.46v-12.12h-3.06v-1.21h7.44v1.21h-3.04v12.12h-1.33Z"/>
    <path class="cls-1" d="M56.68,74.46l-4.52-6.03h1.3c2.36,0,3.76-1.21,3.76-3.02,0-1.26-.77-3.06-3.84-3.06h-2.54v12.12h-1.33v-13.32h4.02c3.48,0,5.02,2.05,5.02,4.3s-1.62,3.87-3.96,4.05l3.76,4.97h-1.67Z"/>
    <path class="cls-1" d="M61.07,74.46v-13.32h7.29v1.21h-5.96v4.79h5.76v1.21h-5.76v4.92h5.96v1.21h-7.29Z"/>
    <path class="cls-1" d="M80.71,74.46l-7.9-11.72h-.04v11.72h-1.33v-13.32h1.8l7.44,11.06h.04v-11.06h1.33v13.32h-1.33Z"/>
    <path class="cls-1" d="M89.91,69.55v-1.21h9.04c-.29,3.58-3.33,6.36-7.04,6.36s-7.15-2.92-7.15-6.9,3.22-6.9,7.13-6.9c2.99,0,5.53,1.91,6.3,3.78h-1.55c-.92-1.57-2.83-2.57-4.74-2.57-3.13,0-5.82,2.52-5.82,5.71s2.7,5.67,5.87,5.67c2.41,0,4.77-1.64,5.38-3.94h-7.44Z"/>
    <path class="cls-1" d="M103.54,74.46v-12.12h-3.06v-1.21h7.44v1.21h-3.04v12.12h-1.33Z"/>
    <path class="cls-1" d="M118.26,74.46v-6.25h-6.9v6.25h-1.33v-13.32h1.33v5.87h6.9v-5.87h1.33v13.32h-1.33Z"/>
  </g>
  <polygon class="cls-2" points="27.27 54.91 27.27 30.17 38.05 30.17 59.62 47.93 82.14 30.17 92.13 30.17 92.13 54.91 86.58 54.91 86.58 37.78 81.98 37.78 59.7 55.55 36.78 37.15 32.66 37.15 32.66 54.89 27.27 54.91"/>
  <polygon class="cls-2" points="27.27 0 27.27 25.14 39.64 25.14 39.64 19.43 33.45 19.43 33.45 0 27.27 0"/>
  <polygon class="cls-2" points="92.92 0 92.92 25.14 80.55 25.14 80.55 19.43 86.74 19.43 86.74 0 92.92 0"/>
  <rect class="cls-2" x="99.8" y="3.9" width="5.71" height="45.04"/>
  <rect class="cls-2" x="113.75" y="17.18" width="5.71" height="22.76"/>
  <rect class="cls-2" x="13.79" y="3.9" width="5.71" height="45.04"/>
  <rect class="cls-2" x=".62" y="17.18" width="5.71" height="22.76"/>
</svg>